<?xml version="1.0" encoding="UTF-8" standalone="no"?>
<svg
   xmlns:dc="http://purl.org/dc/elements/1.1/"
   xmlns:cc="http://creativecommons.org/ns#"
   xmlns:rdf="http://www.w3.org/1999/02/22-rdf-syntax-ns#"
   xmlns:svg="http://www.w3.org/2000/svg"
   xmlns="http://www.w3.org/2000/svg"
   xml:space="preserve"
   style="enable-background:new 0 0 490.296 490.296;"
   viewBox="0 0 490.296 490.296"
   y="0px"
   x="0px"
   id="Layer_1"
   version="1.1"><metadata
     id="metadata49"><rdf:RDF><cc:Work
         rdf:about=""><dc:format>image/svg+xml</dc:format><dc:type
           rdf:resource="http://purl.org/dc/dcmitype/StillImage" /><dc:title></dc:title></cc:Work></rdf:RDF></metadata><defs
     id="defs47" /><g
     style="fill:#f03500;fill-opacity:1"
     id="g12"><g
       style="fill:#f03500;fill-opacity:1"
       id="g10"><path
         style="fill:#f03500;fill-opacity:1"
         id="path2"
         d="M283.2,5.464L148,130.064H40.4v-1.1c0-10.7-8.5-20.2-20.2-20.2c-10.7,0-20.2,8.5-20.2,20.2v232.2    c0,11.7,9.6,20.2,20.2,20.2c11.7,0,20.2-8.5,20.2-19.2v-5.3H148l135.3,127.8c7.8,9.1,34.1,7.8,34.1-14.9v-448.4    C317.3-2.036,292.8-3.536,283.2,5.464z M275.8,421.964l-106.5-101.2c-3.2-3.2-8.5-5.3-13.8-5.3h-115v-144.9h115    c5.3,0,9.6-2.1,13.8-5.3l106.5-98V421.964z" /><path
         style="fill:#f03500;fill-opacity:1"
         id="path4"
         d="M469.7,224.864H369.5c-10.7,0-20.2,8.5-20.2,20.2c0,10.7,8.5,20.2,20.2,20.2h100.1c10.7,0,20.2-8.5,20.2-20.2    C489.9,234.464,481.4,224.864,469.7,224.864z" /><path
         style="fill:#f03500;fill-opacity:1"
         id="path6"
         d="M377,186.464l100.1-40.4c10.7-4.3,16-16,11.7-26.6c-4.3-9.6-16-14.9-26.6-10.7l-100.1,40.5c-10.7,4.3-16,16-11.7,26.6    C353.5,184.364,362.6,191.464,377,186.464z" /><path
         style="fill:#f03500;fill-opacity:1"
         id="path8"
         d="M477.1,344.164l-100.1-40.5c-10.7-5.3-22.4,0-26.6,10.7c-3.2,10.7,1.1,22.4,11.7,26.6l100.1,40.5    c14.9,6.1,23.8-2.4,26.6-10.7C492,360.164,487.8,348.464,477.1,344.164z" /></g></g><g
     id="g14" /><g
     id="g16" /><g
     id="g18" /><g
     id="g20" /><g
     id="g22" /><g
     id="g24" /><g
     id="g26" /><g
     id="g28" /><g
     id="g30" /><g
     id="g32" /><g
     id="g34" /><g
     id="g36" /><g
     id="g38" /><g
     id="g40" /><g
     id="g42" /></svg>