<?xml version="1.0" encoding="iso-8859-1"?>
<!-- Generator: Adobe Illustrator 19.0.0, SVG Export Plug-In . SVG Version: 6.00 Build 0)  -->
<svg version="1.1" id="Layer_1" xmlns="http://www.w3.org/2000/svg" xmlns:xlink="http://www.w3.org/1999/xlink" x="0px" y="0px"
	 viewBox="0 0 490 490" style="enable-background:new 0 0 490 490;" xml:space="preserve">
<g>
	<g>
		<path d="M468.6,0c0,0-371.3,0-372.4,0C41.1,0,0.5,22.9,0.5,55.1V438c0,35.4,49.9,52,95.7,52c44.4,0,92.7-15.7,95.6-48.9
			c0,0,0-1.1,0-3.2h276.9c11.4,0,20.8-9.4,20.8-20.8V20.8C489.4,9.4,480,0,468.6,0z M150.2,435.8c-5.6,4.5-23.1,12.6-54.1,12.6
			s-48.5-8.1-54.1-12.6V101.5c15.1,5.6,33.6,8.8,54.1,8.8s39-3.2,54.1-8.8V435.8z M96.1,69.7c-30.2,0-49.9-9.4-54.1-14.6
			c4.2-5.2,22.9-14.6,54.1-14.6c30.2,0,49.9,9.4,54.1,14.6C146.1,60.3,126.3,69.7,96.1,69.7z M448.8,396.4h-257
			c0.1-101.7,0.1-341.2,0.1-341.2c0-4.7-0.9-9.2-2.5-13.5h259.5v354.7H448.8z"/>
		<path d="M326,138.4h27v59.3c0,11.4,9.4,20.8,20.8,20.8c11.4,0,20.8-9.4,20.8-20.8v-80.1c0-11.4-9.4-20.8-20.8-20.8h-47.9
			c-11.4,0-20.8,9.4-20.8,20.8C305.2,129,314.6,138.4,326,138.4z"/>
	</g>
</g>
<g>
</g>
<g>
</g>
<g>
</g>
<g>
</g>
<g>
</g>
<g>
</g>
<g>
</g>
<g>
</g>
<g>
</g>
<g>
</g>
<g>
</g>
<g>
</g>
<g>
</g>
<g>
</g>
<g>
</g>
</svg>
