<?xml version="1.0" encoding="iso-8859-1"?>
<!-- Generator: Adobe Illustrator 19.0.0, SVG Export Plug-In . SVG Version: 6.00 Build 0)  -->
<svg version="1.1" id="Layer_1" xmlns="http://www.w3.org/2000/svg" xmlns:xlink="http://www.w3.org/1999/xlink" x="0px" y="0px"
	 viewBox="0 0 490.073 490.073" style="enable-background:new 0 0 490.073 490.073;" xml:space="preserve">
<g>
	<g>
		<path d="M490,290.837c-3.8-59.2-26.4-91.8-54.1-116.4v-153c0-11.4-9.4-20.8-20.8-20.8H20.8C9.3,0.537,0,9.937,0,21.337v447.3
			c0,11.4,9.4,20.8,20.8,20.8h394.3c11.4,0,20.8-9.4,20.8-19.8v-229.4c6.9,13.9,11.4,30.7,12.5,52.7c1,11.4,10.4,20.8,21.8,19.8
			C481.6,311.637,491,302.237,490,290.837z M40.5,448.937v-407.8h353.7v101.2c-13.7-10.3-27.7-21.1-39.5-34.6
			c-6.2-7.3-14.6-9.4-22.9-6.2c-8.3,3.1-13.5,10.4-13.5,18.7v160.5c-15.8-6.8-35.4-10.7-57.2-10.7c-56.2,0-97.8,26-97.8,60.3
			s41.6,60.3,97.8,60.3s97.8-26,97.8-60.3c0-1.5,0-162.3,0-162.3c7.3,5.2,30.4,22.2,35.4,26.1v254.8H40.5z M318.3,330.337
			c0,3.1-18.7,18.7-57.2,18.7s-57.2-14.6-57.2-18.7c0-3.1,18.7-18.7,57.2-18.7C300.6,311.637,318.3,326.137,318.3,330.337z"/>
		<path d="M130,130.637h33.3c11.4,0,20.8-9.4,20.8-20.8s-9.4-20.8-20.8-20.8h-53.1c-11.4,0-20.8,9.4-20.8,20.8v75.9
			c0,11.4,9.4,20.8,20.8,20.8s20.8-8.3,19.8-19.8L130,130.637L130,130.637z"/>
	</g>
</g>
<g>
</g>
<g>
</g>
<g>
</g>
<g>
</g>
<g>
</g>
<g>
</g>
<g>
</g>
<g>
</g>
<g>
</g>
<g>
</g>
<g>
</g>
<g>
</g>
<g>
</g>
<g>
</g>
<g>
</g>
</svg>
